<?xml version="1.0" encoding="UTF-8" standalone="no"?><!DOCTYPE svg PUBLIC "-//W3C//DTD SVG 1.1//EN" "http://www.w3.org/Graphics/SVG/1.1/DTD/svg11.dtd"><svg width="100%" height="100%" viewBox="0 0 6250 6250" version="1.1" xmlns="http://www.w3.org/2000/svg" xmlns:xlink="http://www.w3.org/1999/xlink" xml:space="preserve" xmlns:serif="http://www.serif.com/" style="fill-rule:evenodd;clip-rule:evenodd;stroke-linejoin:round;stroke-miterlimit:2;"><rect id="Large" x="0" y="0" width="6250" height="6250" style="fill:none;"/><g><g><g><path d="M1112.5,2416.22c-80.404,0 -159.831,-10.677 -238.281,-32.031c-78.516,-21.484 -142.188,-50.065 -191.146,-85.677l87.24,-198.698c51.888,32.682 107.356,57.682 166.406,75c59.179,17.188 118.815,25.781 178.906,25.781c61.068,0 107.682,-8.333 139.844,-25c32.096,-16.797 48.177,-40.494 48.177,-71.093c-0,-27.605 -14.583,-50 -43.75,-67.188c-29.037,-17.318 -84.245,-34.7 -165.625,-52.083c-100.912,-21.354 -179.883,-46.745 -236.979,-76.302c-57.162,-29.688 -97.136,-64.388 -120.052,-104.167c-22.917,-39.714 -34.375,-88.607 -34.375,-146.615c-0,-66.276 18.554,-125.651 55.729,-178.125c37.304,-52.408 89.844,-93.619 157.552,-123.698c67.708,-30.013 145.377,-45.052 233.073,-45.052c77.409,0 152.474,10.938 225.26,32.813c72.917,21.875 129.753,50.13 170.573,84.635l-85.677,198.698c-97.786,-67.187 -200.651,-100.781 -308.594,-100.781c-51.953,-0 -93.685,10.026 -125.26,29.948c-31.641,19.792 -47.396,46.029 -47.396,78.646c0,19.271 5.534,35.091 16.667,47.396c11.263,12.174 32.161,24.153 62.76,35.937c30.534,11.654 75.846,23.633 135.938,35.938c97.916,21.354 174.804,47.07 230.729,77.083c56.054,30.078 95.833,64.974 119.271,104.687c23.437,39.779 35.156,87.175 35.156,142.188c-0,105.924 -40.82,188.737 -122.396,248.437c-81.445,59.571 -196.029,89.323 -343.75,89.323Z" style="fill:#3552c8;fill-rule:nonzero;"/></g></g></g><g><g><g><path d="M2022.04,2414.66c-82.682,-0 -155.339,-16.016 -217.969,-48.177c-62.695,-32.097 -111.133,-77.67 -145.312,-136.719c-34.05,-59.18 -51.042,-128.451 -51.042,-207.813c0,-79.492 16.992,-148.502 51.042,-207.031c34.179,-58.659 82.356,-103.776 144.531,-135.416c62.109,-31.576 135.026,-47.396 218.75,-47.396c83.464,-0 156.315,15.82 218.49,47.396c62.109,31.64 110.221,76.757 144.27,135.416c34.18,58.529 51.302,127.539 51.302,207.031c0,79.362 -17.122,148.633 -51.302,207.813c-34.049,59.049 -82.161,104.622 -144.27,136.719c-62.175,32.161 -135.026,48.177 -218.49,48.177Zm-0,-203.386c96.68,0 145.052,-63.086 145.052,-189.323c0,-126.367 -48.372,-189.583 -145.052,-189.583c-96.875,0 -145.313,63.216 -145.313,189.583c0,126.237 48.438,189.323 145.313,189.323Z" style="fill:#3552c8;fill-rule:nonzero;"/></g></g></g><g><g><g><path d="M2857.99,2414.66c-128.321,-0 -228.646,-34.636 -301.042,-103.906c-72.396,-69.271 -108.594,-163.542 -108.594,-282.813c0,-78.45 17.513,-147.721 52.604,-207.812c35.222,-60.026 84.701,-106.381 148.438,-139.063c63.672,-32.617 137.305,-48.958 220.833,-48.958c56.055,-0 110.287,8.203 162.761,24.479c52.409,16.341 94.922,38.216 127.604,65.625l-68.75,183.594c-25.521,-20.443 -56.38,-37.045 -92.448,-49.74c-36.133,-12.825 -69.987,-19.271 -101.563,-19.271c-55.078,0 -97.135,15.365 -126.302,46.094c-29.036,30.599 -43.489,76.953 -43.489,139.062c-0,62.175 14.453,109.05 43.489,140.625c29.167,31.641 71.224,47.396 126.302,47.396c31.576,0 65.43,-6.315 101.563,-19.01c36.068,-12.826 66.927,-29.948 92.448,-51.302l68.75,184.896c-34.57,28.515 -78.646,50.651 -132.292,66.406c-53.515,15.755 -110.286,23.698 -170.312,23.698Z" style="fill:#3552c8;fill-rule:nonzero;"/></g></g></g><g><g><g><path d="M3171.3,2402.42l-0,-752.083l272.135,-0l0,752.083l-272.135,0Zm-5.99,-1127.86l284.115,-0l-0,246.093l-284.115,0l0,-246.093Z" style="fill:#3552c8;fill-rule:nonzero;"/></g></g></g><g><g><g><path d="M3868.37,1632.11c118.229,-0 205.534,27.278 261.979,81.771c56.576,54.557 84.896,139.322 84.896,254.427l-0,434.114l-255.208,0l-0,-105.469c-14.258,36.654 -38.217,65.495 -71.875,86.459c-33.724,20.833 -73.959,31.25 -120.834,31.25c-51.953,-0 -98.828,-10.417 -140.625,-31.25c-41.666,-20.964 -74.479,-50.065 -98.437,-87.24c-23.959,-37.109 -35.938,-79.166 -35.938,-126.041c0,-53.972 13.933,-97.006 41.927,-129.167c28.125,-32.096 72.722,-55.274 133.855,-69.531c61.067,-14.193 143.619,-21.355 247.656,-21.355l41.146,0l-0,-18.489c-0,-37.63 -8.724,-63.867 -26.042,-78.646c-17.188,-14.713 -47.787,-22.135 -91.667,-22.135c-34.57,-0 -74.609,6.901 -120.052,20.573c-45.312,13.737 -87.89,31.38 -127.604,52.864l-68.75,-178.906c43.88,-26.563 98.698,-48.698 164.323,-66.406c65.755,-17.839 126.172,-26.823 181.25,-26.823Zm-36.719,600.781c36.589,-0 66.667,-13.021 90.104,-39.063c23.438,-26.041 35.157,-59.44 35.157,-100.26l-0,-18.229l-24.48,-0c-65.104,-0 -111.458,5.924 -139.062,17.708c-27.474,11.654 -41.146,31.185 -41.146,58.594c0,23.437 7.357,42.904 22.136,58.333c14.713,15.3 33.854,22.917 57.291,22.917Z" style="fill:#3552c8;fill-rule:nonzero;"/></g></g></g><g><g><g><rect x="4291.63" y="1324.82" width="272.135" height="1077.6" style="fill:#3552c8;fill-rule:nonzero;"/></g></g></g><g><g><g><path d="M1245.57,3638.3c-112.175,-0 -209.766,-22.917 -292.708,-68.75c-83.008,-45.834 -146.745,-110.482 -191.146,-194.011c-44.271,-83.659 -66.406,-180.534 -66.406,-290.625c-0,-110.026 22.135,-206.575 66.406,-289.583c44.401,-82.943 108.138,-147.396 191.146,-193.229c82.942,-45.834 180.533,-68.75 292.708,-68.75c70.312,-0 138.281,10.677 203.906,32.031c65.755,21.354 119.597,49.87 161.459,85.417l-87.24,198.698c-88.737,-62.11 -179.427,-93.23 -272.135,-93.23c-87.5,0 -154.558,27.539 -201.042,82.553c-46.354,55.078 -69.531,137.109 -69.531,246.093c-0,109.05 23.177,191.341 69.531,246.875c46.484,55.599 113.542,83.334 201.042,83.334c92.708,-0 183.398,-31.055 272.135,-93.23l87.24,198.698c-41.862,35.612 -95.704,64.193 -161.459,85.677c-65.625,21.355 -133.594,32.032 -203.906,32.032Z" style="fill:#3552c8;fill-rule:nonzero;"/></g></g></g><g><g><g><path d="M2170.26,2854.19c89.583,0 156.25,26.758 200,80.208c43.88,53.516 65.885,134.766 65.885,243.75l0,446.355l-272.135,-0l-0,-434.115c-0,-44.792 -7.943,-77.344 -23.698,-97.656c-15.82,-20.443 -39.518,-30.729 -71.094,-30.729c-40.625,-0 -72.917,13.02 -96.875,39.062c-23.958,26.042 -35.937,60.938 -35.937,104.688l-0,418.75l-272.136,-0l0,-1077.61l272.136,0l-0,415.886c27.408,-35.742 61.002,-62.761 100.781,-80.99c39.713,-18.359 84.114,-27.604 133.073,-27.604Z" style="fill:#3552c8;fill-rule:nonzero;"/></g></g></g><g><g><g><path d="M2856.56,2854.19c118.229,0 205.534,27.279 261.979,81.771c56.576,54.557 84.896,139.323 84.896,254.427l0,434.115l-255.208,-0l-0,-105.469c-14.258,36.653 -38.216,65.495 -71.875,86.458c-33.724,20.834 -73.958,31.25 -120.833,31.25c-51.954,0 -98.829,-10.416 -140.625,-31.25c-41.667,-20.963 -74.48,-50.065 -98.438,-87.239c-23.958,-37.11 -35.937,-79.167 -35.937,-126.042c-0,-53.971 13.932,-97.005 41.927,-129.167c28.125,-32.096 72.721,-55.273 133.854,-69.531c61.068,-14.193 143.62,-21.354 247.656,-21.354l41.146,-0l-0,-18.49c-0,-37.63 -8.724,-63.867 -26.042,-78.646c-17.187,-14.713 -47.786,-22.135 -91.666,-22.135c-34.571,0 -74.61,6.901 -120.052,20.573c-45.313,13.737 -87.891,31.38 -127.605,52.865l-68.75,-178.907c43.881,-26.562 98.698,-48.698 164.323,-66.406c65.755,-17.839 126.172,-26.823 181.25,-26.823Zm-36.718,600.781c36.588,0 66.666,-13.02 90.104,-39.062c23.437,-26.042 35.156,-59.44 35.156,-100.261l-0,-18.229l-24.479,0c-65.104,0 -111.459,5.925 -139.063,17.709c-27.474,11.653 -41.146,31.184 -41.146,58.593c0,23.438 7.357,42.904 22.136,58.334c14.713,15.299 33.854,22.916 57.292,22.916Z" style="fill:#3552c8;fill-rule:nonzero;"/></g></g></g><g><g><g><path d="M3785.81,2854.19c89.583,0 156.25,26.758 200,80.208c43.88,53.516 65.885,134.766 65.885,243.75l-0,446.355l-272.135,-0l-0,-434.115c-0,-44.792 -7.943,-77.344 -23.698,-97.656c-15.821,-20.443 -39.519,-30.729 -71.094,-30.729c-40.625,-0 -72.917,13.02 -96.875,39.062c-23.958,26.042 -35.938,60.938 -35.938,104.688l0,418.75l-272.135,-0l-0,-752.084l264.583,0l0,101.042c26.367,-38.672 60.417,-68.229 102.084,-88.542c41.797,-20.442 88.281,-30.729 139.323,-30.729Z" style="fill:#3552c8;fill-rule:nonzero;"/></g></g></g><g><g><g><path d="M4930.43,2872.42l0,660.417c0,124.284 -36.979,218.49 -110.937,282.552c-73.828,64.193 -183.008,96.354 -327.604,96.354c-68.229,0 -134.505,-7.943 -198.698,-23.698c-64.258,-15.82 -119.792,-37.955 -166.667,-66.406l68.75,-184.896c46.875,24.479 95.443,43.294 145.834,56.511c50.52,13.151 98.242,19.791 143.229,19.791c60.026,0 104.557,-13.021 133.593,-39.062c28.972,-25.912 43.49,-66.797 43.49,-122.917l0,-58.073c-22.396,33.724 -54.557,60.547 -96.354,80.469c-41.667,19.792 -86.979,29.687 -135.938,29.687c-65.104,0 -123.177,-15.234 -174.218,-45.833c-50.912,-30.534 -90.625,-74.088 -119.271,-130.729c-28.516,-56.576 -42.709,-122.005 -42.709,-196.354c0,-74.479 14.193,-140.17 42.709,-197.136c28.646,-57.096 68.359,-101.172 119.271,-132.291c51.041,-31.055 109.114,-46.615 174.218,-46.615c50,0 95.834,10.287 137.5,30.729c41.797,20.313 73.959,48.308 96.355,83.854l-0,-96.354l267.447,0Zm-418.75,527.344c47.917,0 85.027,-14.974 111.459,-45.052c26.562,-30.013 39.844,-71.484 39.844,-124.479c-0,-53.972 -13.282,-96.224 -39.844,-126.823c-26.432,-30.534 -63.542,-45.833 -111.459,-45.833c-46.875,-0 -83.593,15.039 -110.156,45.052c-26.432,30.078 -39.583,72.591 -39.583,127.604c-0,52.995 13.411,94.466 40.364,124.479c27.084,30.078 63.542,45.052 109.375,45.052Z" style="fill:#3552c8;fill-rule:nonzero;"/></g></g></g><g><g><g><path d="M5707.06,3300.54l-464.584,0c7.943,48.828 25.651,83.985 53.125,105.469c27.605,21.354 66.928,32.031 117.969,32.031c36.589,0 73.763,-6.054 111.459,-18.229c37.63,-12.305 71.354,-29.167 101.041,-50.521l68.75,178.907c-37.695,27.473 -83.073,49.088 -136.198,64.843c-52.995,15.755 -105.924,23.698 -158.854,23.698c-86.654,0 -161.588,-15.755 -224.739,-47.396c-63.217,-31.575 -111.915,-76.888 -146.094,-135.937c-34.05,-59.18 -51.042,-128.516 -51.042,-208.073c0,-75.326 16.016,-142.774 48.177,-202.344c32.097,-59.505 76.888,-105.859 134.375,-139.062c57.617,-33.138 122.656,-49.74 195.052,-49.74c107.943,0 193.555,34.375 256.771,103.125c63.151,68.75 94.792,162.761 94.792,282.031l-0,61.198Zm-344.011,-263.021c-72.395,0 -113.672,44.922 -123.698,134.636l239.844,-0c-6.12,-89.714 -44.791,-134.636 -116.146,-134.636Z" style="fill:#3552c8;fill-rule:nonzero;"/></g></g></g><g><g><g><path d="M722.917,4846.58l-0,-1077.6l281.25,-0l-0,850l458.333,-0l0,227.604l-739.583,-0Z" style="fill:#3552c8;fill-rule:nonzero;"/></g></g></g><g><g><g><path d="M1846.27,4076.27c118.229,0 205.534,27.279 261.979,81.771c56.576,54.558 84.896,139.323 84.896,254.427l0,434.115l-255.208,-0l-0,-105.469c-14.258,36.654 -38.216,65.495 -71.875,86.459c-33.724,20.833 -73.958,31.25 -120.833,31.25c-51.954,-0 -98.829,-10.417 -140.625,-31.25c-41.667,-20.964 -74.48,-50.066 -98.438,-87.24c-23.958,-37.109 -35.937,-79.167 -35.937,-126.042c-0,-53.971 13.932,-97.005 41.927,-129.166c28.125,-32.097 72.721,-55.274 133.854,-69.532c61.067,-14.192 143.62,-21.354 247.656,-21.354l41.146,0l-0,-18.489c-0,-37.631 -8.724,-63.868 -26.042,-78.646c-17.187,-14.714 -47.786,-22.136 -91.666,-22.136c-34.571,0 -74.61,6.901 -120.053,20.573c-45.312,13.737 -87.89,31.38 -127.604,52.865l-68.75,-178.906c43.88,-26.563 98.698,-48.698 164.323,-66.407c65.755,-17.838 126.172,-26.823 181.25,-26.823Zm-36.719,600.782c36.589,-0 66.667,-13.021 90.105,-39.063c23.437,-26.041 35.156,-59.44 35.156,-100.26l-0,-18.229l-24.479,-0c-65.104,-0 -111.459,5.924 -139.063,17.708c-27.474,11.654 -41.146,31.185 -41.146,58.594c0,23.437 7.357,42.903 22.136,58.333c14.713,15.3 33.854,22.917 57.291,22.917Z" style="fill:#3552c8;fill-rule:nonzero;"/></g></g></g><g><g><g><path d="M2767.71,4076.27c65.234,0 122.786,15.821 172.656,47.396c50,31.641 88.933,76.758 116.927,135.417c28.125,58.529 42.188,126.497 42.188,203.906c-0,77.474 -14.063,146.224 -42.188,206.25c-27.994,60.091 -67.187,106.706 -117.708,139.844c-50.391,33.203 -107.682,49.74 -171.875,49.74c-49.87,-0 -95.443,-10.157 -136.719,-30.469c-41.146,-20.443 -72.526,-48.503 -94.01,-84.115l-0,102.344l-267.448,-0l-0,-1077.6l272.135,-0l0,414.323c22.396,-32.617 53.711,-58.594 94.011,-77.865c40.234,-19.401 84.245,-29.167 132.031,-29.167Zm-83.854,579.167c46.875,0 82.943,-16.471 108.333,-49.479c25.521,-33.138 38.281,-80.794 38.281,-142.969c0,-59.179 -12.5,-104.492 -37.5,-135.937c-24.869,-31.576 -60.677,-47.396 -107.552,-47.396c-47.916,-0 -84.635,16.081 -110.156,48.177c-25.521,31.966 -38.281,78.06 -38.281,138.281c-0,61.133 12.76,108.008 38.281,140.625c25.521,32.487 61.719,48.698 108.594,48.698Z" style="fill:#3552c8;fill-rule:nonzero;"/></g></g></g></svg>