<?xml version="1.0" encoding="UTF-8" standalone="no"?><!DOCTYPE svg PUBLIC "-//W3C//DTD SVG 1.1//EN" "http://www.w3.org/Graphics/SVG/1.1/DTD/svg11.dtd"><svg width="100%" height="100%" viewBox="0 0 2084 2084" version="1.1" xmlns="http://www.w3.org/2000/svg" xmlns:xlink="http://www.w3.org/1999/xlink" xml:space="preserve" xmlns:serif="http://www.serif.com/" style="fill-rule:evenodd;clip-rule:evenodd;stroke-linejoin:round;stroke-miterlimit:2;"><rect id="Small" x="0" y="0" width="2083.33" height="2083.33" style="fill:none;"/><g id="Small1" serif:id="Small"><g><g><g><path d="M370.833,805.408c-26.801,-0 -53.277,-3.559 -79.427,-10.677c-26.172,-7.162 -47.396,-16.689 -63.715,-28.559l29.08,-66.233c17.296,10.894 35.785,19.227 55.469,25c19.726,5.729 39.605,8.594 59.635,8.594c20.356,-0 35.894,-2.778 46.615,-8.334c10.698,-5.599 16.059,-13.498 16.059,-23.697c-0,-9.202 -4.861,-16.667 -14.584,-22.396c-9.679,-5.773 -28.081,-11.567 -55.208,-17.361c-33.637,-7.118 -59.961,-15.582 -78.993,-25.434c-19.054,-9.896 -32.379,-21.463 -40.017,-34.723c-7.639,-13.238 -11.459,-29.535 -11.459,-48.871c0,-22.092 6.185,-41.884 18.577,-59.375c12.434,-17.47 29.948,-31.207 52.517,-41.233c22.569,-10.004 48.459,-15.017 77.691,-15.017c25.803,-0 50.825,3.646 75.087,10.937c24.305,7.292 43.251,16.71 56.857,28.212l-28.559,66.233c-32.595,-22.396 -66.883,-33.594 -102.864,-33.594c-17.318,-0 -31.229,3.342 -41.754,9.983c-10.547,6.597 -15.798,15.343 -15.798,26.215c-0,6.424 1.844,11.697 5.555,15.799c3.755,4.058 10.721,8.051 20.92,11.979c10.178,3.884 25.282,7.877 45.313,11.979c32.639,7.118 58.268,15.69 76.91,25.694c18.684,10.026 31.944,21.658 39.757,34.896c7.812,13.26 11.718,29.058 11.718,47.396c0,35.308 -13.606,62.912 -40.798,82.812c-27.149,19.857 -65.343,29.775 -114.584,29.775Z" style="fill:#3552c8;fill-rule:nonzero;"/></g></g></g><g><g><g><path d="M674.015,804.887c-27.561,-0 -51.78,-5.339 -72.657,-16.059c-20.898,-10.699 -37.044,-25.89 -48.437,-45.573c-11.35,-19.727 -17.014,-42.817 -17.014,-69.271c0,-26.497 5.664,-49.501 17.014,-69.01c11.393,-19.553 27.452,-34.592 48.177,-45.139c20.703,-10.525 45.009,-15.799 72.917,-15.799c27.821,0 52.105,5.274 72.83,15.799c20.703,10.547 36.74,25.586 48.09,45.139c11.393,19.509 17.1,42.513 17.1,69.01c0,26.454 -5.707,49.544 -17.1,69.271c-11.35,19.683 -27.387,34.874 -48.09,45.573c-20.725,10.72 -45.009,16.059 -72.83,16.059Zm-0,-67.795c32.226,-0 48.35,-21.029 48.35,-63.108c0,-42.122 -16.124,-63.194 -48.35,-63.194c-32.292,-0 -48.438,21.072 -48.438,63.194c0,42.079 16.146,63.108 48.438,63.108Z" style="fill:#3552c8;fill-rule:nonzero;"/></g></g></g><g><g><g><path d="M952.663,804.887c-42.774,-0 -76.216,-11.545 -100.348,-34.635c-24.132,-23.091 -36.198,-54.514 -36.198,-94.271c0,-26.15 5.838,-49.241 17.535,-69.271c11.741,-20.009 28.234,-35.46 49.479,-46.354c21.224,-10.873 45.769,-16.32 73.611,-16.32c18.685,0 36.763,2.735 54.254,8.16c17.47,5.447 31.641,12.739 42.535,21.875l-22.917,61.198c-8.507,-6.814 -18.793,-12.348 -30.816,-16.58c-12.044,-4.275 -23.329,-6.424 -33.854,-6.424c-18.36,0 -32.379,5.122 -42.101,15.365c-9.679,10.2 -14.496,25.651 -14.496,46.354c-0,20.725 4.817,36.35 14.496,46.875c9.722,10.547 23.741,15.799 42.101,15.799c10.525,-0 21.81,-2.105 33.854,-6.337c12.023,-4.275 22.309,-9.983 30.816,-17.101l22.917,61.632c-11.524,9.505 -26.216,16.884 -44.098,22.136c-17.838,5.251 -36.762,7.899 -56.77,7.899Z" style="fill:#3552c8;fill-rule:nonzero;"/></g></g></g><g><g><g><path d="M1057.1,800.807l0,-250.694l90.712,-0l0,250.694l-90.712,0Zm-1.996,-375.955l94.705,0l-0,82.031l-94.705,0l-0,-82.031Z" style="fill:#3552c8;fill-rule:nonzero;"/></g></g></g><g><g><g><path d="M1289.46,544.036c39.409,0 68.511,9.093 87.326,27.257c18.859,18.186 28.299,46.441 28.299,84.809l-0,144.705l-85.07,0l0,-35.156c-4.752,12.218 -12.739,21.831 -23.958,28.819c-11.241,6.945 -24.653,10.417 -40.278,10.417c-17.318,-0 -32.943,-3.472 -46.875,-10.417c-13.889,-6.988 -24.826,-16.688 -32.812,-29.08c-7.987,-12.369 -11.98,-26.388 -11.98,-42.013c0,-17.991 4.645,-32.336 13.976,-43.056c9.375,-10.699 24.241,-18.425 44.618,-23.177c20.356,-4.731 47.873,-7.118 82.552,-7.118l13.716,-0l-0,-6.163c-0,-12.544 -2.908,-21.289 -8.681,-26.216c-5.729,-4.904 -15.929,-7.378 -30.556,-7.378c-11.523,-0 -24.869,2.3 -40.017,6.858c-15.104,4.579 -29.297,10.46 -42.535,17.621l-22.916,-59.635c14.626,-8.855 32.899,-16.233 54.774,-22.136c21.918,-5.946 42.057,-8.941 60.417,-8.941Zm-12.24,200.261c12.196,-0 22.222,-4.341 30.035,-13.021c7.812,-8.681 11.719,-19.814 11.719,-33.42l-0,-6.077l-8.16,0c-21.702,0 -37.153,1.975 -46.354,5.903c-9.158,3.885 -13.716,10.395 -13.716,19.531c0,7.813 2.453,14.302 7.379,19.445c4.904,5.1 11.285,7.639 19.097,7.639Z" style="fill:#3552c8;fill-rule:nonzero;"/></g></g></g><g><g><g><rect x="1430.54" y="441.606" width="90.712" height="359.201" style="fill:#3552c8;fill-rule:nonzero;"/></g></g></g><g><g><g><path d="M415.191,1212.77c-37.392,-0 -69.922,-7.639 -97.569,-22.917c-27.67,-15.278 -48.915,-36.827 -63.716,-64.67c-14.757,-27.887 -22.135,-60.178 -22.135,-96.875c-0,-36.676 7.378,-68.859 22.135,-96.528c14.801,-27.648 36.046,-49.132 63.716,-64.41c27.647,-15.278 60.177,-22.916 97.569,-22.916c23.437,-0 46.094,3.559 67.969,10.677c21.918,7.118 39.865,16.623 53.819,28.472l-29.08,66.233c-29.579,-20.704 -59.809,-31.077 -90.711,-31.077c-29.167,0 -51.52,9.18 -67.014,27.518c-15.452,18.359 -23.177,45.703 -23.177,82.031c-0,36.35 7.725,63.78 23.177,82.291c15.494,18.533 37.847,27.778 67.014,27.778c30.902,0 61.132,-10.351 90.711,-31.076l29.08,66.232c-13.954,11.871 -31.901,21.398 -53.819,28.559c-21.875,7.119 -44.532,10.678 -67.969,10.678Z" style="fill:#3552c8;fill-rule:nonzero;"/></g></g></g><g><g><g><path d="M723.422,951.396c29.861,0 52.083,8.919 66.666,26.736c14.627,17.839 21.962,44.922 21.962,81.25l0,148.785l-90.712,-0l0,-144.705c0,-14.931 -2.647,-25.781 -7.899,-32.552c-5.273,-6.814 -13.173,-10.243 -23.698,-10.243c-13.542,-0 -24.306,4.34 -32.292,13.021c-7.986,8.68 -11.979,20.312 -11.979,34.896l0,139.583l-90.712,-0l0,-359.202l90.712,0l0,138.629c9.136,-11.914 20.334,-20.92 33.594,-26.997c13.238,-6.119 28.038,-9.201 44.358,-9.201Z" style="fill:#3552c8;fill-rule:nonzero;"/></g></g></g><g><g><g><path d="M952.186,951.396c39.41,0 68.512,9.093 87.327,27.257c18.858,18.186 28.298,46.441 28.298,84.809l0,144.705l-85.069,-0l-0,-35.156c-4.753,12.217 -12.739,21.831 -23.958,28.819c-11.242,6.945 -24.653,10.417 -40.278,10.417c-17.318,-0 -32.943,-3.472 -46.875,-10.417c-13.889,-6.988 -24.827,-16.688 -32.813,-29.08c-7.986,-12.37 -11.979,-26.389 -11.979,-42.014c0,-17.99 4.644,-32.335 13.976,-43.055c9.375,-10.699 24.24,-18.425 44.618,-23.177c20.356,-4.731 47.873,-7.118 82.552,-7.118l13.715,-0l0,-6.164c0,-12.543 -2.908,-21.289 -8.68,-26.215c-5.729,-4.904 -15.929,-7.378 -30.556,-7.378c-11.523,-0 -24.87,2.3 -40.017,6.857c-15.104,4.579 -29.297,10.46 -42.535,17.622l-22.917,-59.636c14.627,-8.854 32.9,-16.232 54.775,-22.135c21.918,-5.946 42.057,-8.941 60.416,-8.941Zm-12.239,200.26c12.196,0 22.222,-4.34 30.035,-13.02c7.812,-8.681 11.718,-19.814 11.718,-33.421l0,-6.076l-8.159,0c-21.702,0 -37.153,1.975 -46.355,5.903c-9.158,3.884 -13.715,10.395 -13.715,19.531c0,7.813 2.452,14.301 7.379,19.445c4.904,5.099 11.284,7.638 19.097,7.638Z" style="fill:#3552c8;fill-rule:nonzero;"/></g></g></g><g><g><g><path d="M1261.93,951.396c29.861,0 52.084,8.919 66.667,26.736c14.627,17.839 21.962,44.922 21.962,81.25l-0,148.785l-90.712,-0l-0,-144.705c-0,-14.931 -2.648,-25.781 -7.899,-32.552c-5.274,-6.814 -13.173,-10.243 -23.698,-10.243c-13.542,-0 -24.306,4.34 -32.292,13.021c-7.986,8.68 -11.979,20.312 -11.979,34.896l-0,139.583l-90.712,-0l-0,-250.695l88.194,0l0,33.681c8.79,-12.891 20.139,-22.743 34.028,-29.514c13.933,-6.814 29.427,-10.243 46.441,-10.243Z" style="fill:#3552c8;fill-rule:nonzero;"/></g></g></g><g><g><g><path d="M1643.48,957.472l-0,220.139c-0,41.428 -12.327,72.83 -36.979,94.184c-24.61,21.398 -61.003,32.118 -109.202,32.118c-22.743,0 -44.835,-2.647 -66.232,-7.899c-21.42,-5.273 -39.931,-12.652 -55.556,-22.135l22.917,-61.632c15.625,8.159 31.814,14.431 48.611,18.837c16.84,4.383 32.747,6.597 47.743,6.597c20.009,-0 34.852,-4.341 44.531,-13.021c9.657,-8.637 14.497,-22.266 14.497,-40.972l-0,-19.358c-7.466,11.241 -18.186,20.182 -32.118,26.823c-13.889,6.597 -28.993,9.896 -45.313,9.896c-21.701,-0 -41.059,-5.078 -58.073,-15.278c-16.97,-10.178 -30.208,-24.696 -39.757,-43.576c-9.505,-18.859 -14.236,-40.669 -14.236,-65.452c0,-24.826 4.731,-46.723 14.236,-65.712c9.549,-19.032 22.787,-33.724 39.757,-44.097c17.014,-10.351 36.372,-15.538 58.073,-15.538c16.667,0 31.945,3.429 45.833,10.243c13.933,6.771 24.653,16.103 32.119,27.951l-0,-32.118l89.149,0Zm-139.584,175.782c15.973,-0 28.343,-4.992 37.153,-15.018c8.854,-10.004 13.282,-23.828 13.282,-41.493c-0,-17.99 -4.428,-32.074 -13.282,-42.274c-8.81,-10.178 -21.18,-15.278 -37.153,-15.278c-15.625,0 -27.864,5.013 -36.718,15.018c-8.811,10.026 -13.195,24.197 -13.195,42.534c0,17.665 4.471,31.489 13.455,41.493c9.028,10.026 21.181,15.018 36.458,15.018Z" style="fill:#3552c8;fill-rule:nonzero;"/></g></g></g><g><g><g><path d="M1902.35,1100.18l-154.861,-0c2.647,16.276 8.55,27.995 17.708,35.156c9.202,7.118 22.309,10.677 39.323,10.677c12.196,0 24.588,-2.018 37.153,-6.076c12.543,-4.102 23.785,-9.723 33.68,-16.841l22.917,59.636c-12.565,9.158 -27.691,16.363 -45.399,21.614c-17.665,5.252 -35.308,7.9 -52.952,7.9c-28.884,-0 -53.862,-5.252 -74.913,-15.799c-21.072,-10.525 -37.305,-25.629 -48.698,-45.312c-11.35,-19.727 -17.014,-42.839 -17.014,-69.358c0,-25.109 5.339,-47.591 16.059,-67.448c10.699,-19.835 25.63,-35.286 44.792,-46.354c19.206,-11.046 40.885,-16.58 65.017,-16.58c35.981,0 64.519,11.458 85.591,34.375c21.05,22.917 31.597,54.254 31.597,94.01l-0,20.4Zm-114.67,-87.674c-24.132,0 -37.891,14.974 -41.233,44.879l79.948,-0c-2.04,-29.905 -14.93,-44.879 -38.715,-44.879Z" style="fill:#3552c8;fill-rule:nonzero;"/></g></g></g><g><g><g><path d="M240.972,1615.53l0,-359.202l93.75,0l0,283.334l152.778,-0l0,75.868l-246.528,-0Z" style="fill:#3552c8;fill-rule:nonzero;"/></g></g></g><g><g><g><path d="M615.424,1358.76c39.41,-0 68.512,9.093 87.327,27.257c18.858,18.186 28.298,46.441 28.298,84.809l0,144.705l-85.069,-0l-0,-35.157c-4.753,12.218 -12.739,21.832 -23.958,28.82c-11.242,6.944 -24.653,10.417 -40.278,10.417c-17.318,-0 -32.943,-3.473 -46.875,-10.417c-13.889,-6.988 -24.827,-16.689 -32.813,-29.08c-7.986,-12.37 -11.979,-26.389 -11.979,-42.014c0,-17.99 4.644,-32.335 13.976,-43.055c9.375,-10.699 24.24,-18.425 44.618,-23.178c20.356,-4.73 47.873,-7.118 82.552,-7.118l13.715,0l0,-6.163c0,-12.543 -2.908,-21.289 -8.68,-26.215c-5.729,-4.905 -15.929,-7.379 -30.556,-7.379c-11.523,0 -24.87,2.301 -40.017,6.858c-15.104,4.579 -29.297,10.46 -42.535,17.622l-22.917,-59.636c14.627,-8.854 32.9,-16.232 54.775,-22.135c21.918,-5.946 42.057,-8.941 60.416,-8.941Zm-12.239,200.26c12.196,0 22.222,-4.34 30.035,-13.021c7.812,-8.68 11.718,-19.813 11.718,-33.42l0,-6.076l-8.159,-0c-21.702,-0 -37.153,1.975 -46.355,5.903c-9.158,3.884 -13.715,10.395 -13.715,19.531c0,7.812 2.452,14.301 7.379,19.444c4.904,5.1 11.284,7.639 19.097,7.639Z" style="fill:#3552c8;fill-rule:nonzero;"/></g></g></g><g><g><g><path d="M922.569,1358.76c21.745,-0 40.929,5.273 57.552,15.798c16.667,10.547 29.644,25.586 38.976,45.139c9.375,19.51 14.062,42.166 14.062,67.969c0,25.825 -4.687,48.741 -14.062,68.75c-9.332,20.03 -22.396,35.569 -39.236,46.615c-16.797,11.067 -35.894,16.58 -57.292,16.58c-16.623,-0 -31.814,-3.386 -45.573,-10.157c-13.715,-6.814 -24.175,-16.167 -31.337,-28.038l0,34.115l-89.149,-0l-0,-359.202l90.712,0l-0,138.108c7.465,-10.872 17.903,-19.531 31.337,-25.955c13.411,-6.467 28.081,-9.722 44.01,-9.722Zm-27.951,193.055c15.625,0 27.647,-5.49 36.111,-16.493c8.507,-11.046 12.76,-26.931 12.76,-47.656c0,-19.726 -4.167,-34.831 -12.5,-45.312c-8.29,-10.526 -20.226,-15.799 -35.851,-15.799c-15.972,-0 -28.211,5.36 -36.718,16.059c-8.507,10.655 -12.761,26.02 -12.761,46.094c0,20.377 4.254,36.002 12.761,46.875c8.507,10.829 20.573,16.232 36.198,16.232Z" style="fill:#3552c8;fill-rule:nonzero;"/></g></g></g></g></svg>