<?xml version="1.0" encoding="UTF-8" standalone="no"?><!DOCTYPE svg PUBLIC "-//W3C//DTD SVG 1.1//EN" "http://www.w3.org/Graphics/SVG/1.1/DTD/svg11.dtd"><svg width="100%" height="100%" viewBox="0 0 12500 12500" version="1.1" xmlns="http://www.w3.org/2000/svg" xmlns:xlink="http://www.w3.org/1999/xlink" xml:space="preserve" xmlns:serif="http://www.serif.com/" style="fill-rule:evenodd;clip-rule:evenodd;stroke-linejoin:round;stroke-miterlimit:2;"><rect id="LARGER" x="0" y="0" width="12500" height="12500" style="fill:none;"/><g><g><g><path d="M2225,4832.45c-160.807,-0 -319.661,-21.355 -476.562,-64.063c-157.032,-42.969 -284.375,-100.13 -382.292,-171.354l174.479,-397.396c103.776,65.365 214.714,115.365 332.813,150c118.359,34.375 237.63,51.563 357.812,51.563c122.135,-0 215.365,-16.667 279.688,-50c64.192,-33.594 96.354,-80.99 96.354,-142.188c-0,-55.208 -29.167,-100 -87.5,-134.375c-58.073,-34.635 -168.49,-69.401 -331.25,-104.167c-201.823,-42.708 -359.766,-93.489 -473.959,-152.604c-114.323,-59.375 -194.27,-128.776 -240.104,-208.333c-45.833,-79.427 -68.75,-177.214 -68.75,-293.229c0,-132.552 37.11,-251.302 111.459,-356.25c74.609,-104.818 179.687,-187.24 315.104,-247.396c135.416,-60.026 290.755,-90.104 466.146,-90.104c154.817,-0 304.947,21.875 450.52,65.625c145.834,43.75 259.506,100.26 341.146,169.271l-171.354,397.395c-195.573,-134.375 -401.302,-201.562 -617.187,-201.562c-103.907,-0 -187.37,20.052 -250.521,59.896c-63.282,39.583 -94.792,92.057 -94.792,157.291c0,38.542 11.068,70.183 33.333,94.792c22.526,24.349 64.323,48.307 125.521,71.875c61.068,23.307 151.693,47.266 271.875,71.875c195.834,42.708 349.61,94.141 461.459,154.167c112.109,60.156 191.666,129.948 238.541,209.375c46.875,79.557 70.313,174.349 70.313,284.375c-0,211.849 -81.641,377.474 -244.792,496.875c-162.891,119.14 -392.057,178.646 -687.5,178.646Z" style="fill:#3552c8;fill-rule:nonzero;"/></g></g></g><g><g><g><path d="M4044.09,4829.32c-165.365,-0 -310.677,-32.032 -435.938,-96.355c-125.39,-64.192 -222.265,-155.338 -290.625,-273.437c-68.099,-118.359 -102.083,-256.901 -102.083,-415.625c0,-158.984 33.984,-297.005 102.083,-414.063c68.36,-117.317 164.714,-207.552 289.063,-270.833c124.219,-63.151 270.052,-94.792 437.5,-94.792c166.927,0 312.63,31.641 436.979,94.792c124.219,63.281 220.443,153.516 288.542,270.833c68.359,117.058 102.604,255.079 102.604,414.063c-0,158.724 -34.245,297.266 -102.604,415.625c-68.099,118.099 -164.323,209.245 -288.542,273.437c-124.349,64.323 -270.052,96.355 -436.979,96.355Zm-0,-406.771c193.359,-0 290.104,-126.172 290.104,-378.646c0,-252.734 -96.745,-379.167 -290.104,-379.167c-193.75,0 -290.625,126.433 -290.625,379.167c-0,252.474 96.875,378.646 290.625,378.646Z" style="fill:#3552c8;fill-rule:nonzero;"/></g></g></g><g><g><g><path d="M5715.98,4829.32c-256.64,-0 -457.291,-69.271 -602.083,-207.813c-144.792,-138.542 -217.187,-327.083 -217.187,-565.625c-0,-156.901 35.026,-295.443 105.208,-415.625c70.443,-120.052 169.401,-212.76 296.875,-278.125c127.344,-65.234 274.609,-97.917 441.667,-97.917c112.109,0 220.573,16.407 325.52,48.959c104.818,32.682 189.844,76.432 255.209,131.25l-137.5,367.187c-51.042,-40.885 -112.761,-74.088 -184.896,-99.479c-72.266,-25.651 -139.974,-38.542 -203.125,-38.542c-110.156,0 -194.271,30.73 -252.604,92.188c-58.073,61.198 -86.979,153.906 -86.979,278.125c-0,124.349 28.906,218.099 86.979,281.25c58.333,63.281 142.448,94.792 252.604,94.792c63.151,-0 130.859,-12.631 203.125,-38.021c72.135,-25.651 133.854,-59.896 184.896,-102.604l137.5,369.791c-69.141,57.031 -157.292,101.302 -264.584,132.813c-107.031,31.51 -220.572,47.396 -340.625,47.396Z" style="fill:#3552c8;fill-rule:nonzero;"/></g></g></g><g><g><g><path d="M6342.6,4804.84l0,-1504.17l544.271,-0l0,1504.17l-544.271,0Zm-11.979,-2255.73l568.229,0l0,492.188l-568.229,-0l0,-492.188Z" style="fill:#3552c8;fill-rule:nonzero;"/></g></g></g><g><g><g><path d="M7736.75,3264.22c236.458,0 411.068,54.558 523.958,163.542c113.151,109.115 169.792,278.646 169.792,508.854l-0,868.229l-510.417,0l0,-210.937c-28.515,73.307 -76.432,130.989 -143.75,172.917c-67.448,41.666 -147.916,62.5 -241.666,62.5c-103.907,-0 -197.657,-20.834 -281.25,-62.5c-83.334,-41.928 -148.959,-100.131 -196.875,-174.48c-47.917,-74.218 -71.875,-158.333 -71.875,-252.083c-0,-107.943 27.864,-194.01 83.854,-258.333c56.25,-64.193 145.442,-110.547 267.708,-139.063c122.135,-28.385 287.24,-42.708 495.313,-42.708l82.291,-0l0,-36.979c0,-75.261 -17.448,-127.735 -52.083,-157.292c-34.375,-29.427 -95.573,-44.271 -183.333,-44.271c-69.141,0 -149.219,13.802 -240.105,41.146c-90.625,27.474 -175.781,62.76 -255.208,105.729l-137.5,-357.812c87.76,-53.125 197.396,-97.396 328.646,-132.813c131.51,-35.677 252.344,-53.646 362.5,-53.646Zm-73.438,1201.56c73.177,-0 133.334,-26.042 180.209,-78.125c46.875,-52.083 70.312,-118.88 70.312,-200.521l0,-36.458l-48.958,-0c-130.208,-0 -222.917,11.849 -278.125,35.416c-54.948,23.308 -82.292,62.37 -82.292,117.188c0,46.875 14.714,85.807 44.271,116.667c29.427,30.599 67.708,45.833 114.583,45.833Z" style="fill:#3552c8;fill-rule:nonzero;"/></g></g></g><g><g><g><rect x="8583.26" y="2649.63" width="544.271" height="2155.21" style="fill:#3552c8;fill-rule:nonzero;"/></g></g></g><g><g><g><path d="M2491.15,7276.61c-224.349,0 -419.531,-45.833 -585.417,-137.5c-166.015,-91.666 -293.489,-220.963 -382.291,-388.02c-88.542,-167.318 -132.813,-361.068 -132.813,-581.25c0,-220.053 44.271,-413.152 132.813,-579.167c88.802,-165.886 216.276,-294.792 382.291,-386.458c165.886,-91.667 361.068,-137.5 585.417,-137.5c140.625,-0 276.562,21.354 407.812,64.062c131.511,42.708 239.193,99.74 322.917,170.833l-174.479,397.396c-177.474,-124.219 -358.854,-186.458 -544.271,-186.458c-175,-0 -309.115,55.078 -402.083,165.104c-92.709,110.156 -139.063,274.219 -139.063,492.188c0,218.098 46.354,382.682 139.063,493.75c92.968,111.197 227.083,166.666 402.083,166.666c185.417,0 366.797,-62.109 544.271,-186.458l174.479,397.396c-83.724,71.224 -191.406,128.385 -322.917,171.354c-131.25,42.708 -267.187,64.062 -407.812,64.062Z" style="fill:#3552c8;fill-rule:nonzero;"/></g></g></g><g><g><g><path d="M4340.53,5708.38c179.166,0 312.5,53.516 400,160.417c87.76,107.031 131.77,269.531 131.77,487.5l0,892.708l-544.27,0l-0,-868.229c-0,-89.583 -15.886,-154.687 -47.396,-195.312c-31.641,-40.886 -79.037,-61.459 -142.188,-61.459c-81.25,0 -145.833,26.042 -193.75,78.125c-47.916,52.084 -71.875,121.875 -71.875,209.375l0,837.5l-544.271,0l0,-2155.21l544.271,-0l0,831.771c54.818,-71.485 122.005,-125.521 201.563,-161.979c79.427,-36.719 168.229,-55.209 266.146,-55.209Z" style="fill:#3552c8;fill-rule:nonzero;"/></g></g></g><g><g><g><path d="M5713.12,5708.38c236.459,0 411.068,54.557 523.959,163.542c113.151,109.114 169.791,278.646 169.791,508.854l0,868.229l-510.416,0l-0,-210.937c-28.516,73.307 -76.432,130.989 -143.75,172.916c-67.448,41.667 -147.917,62.5 -241.667,62.5c-103.906,0 -197.656,-20.833 -281.25,-62.5c-83.333,-41.927 -148.958,-100.13 -196.875,-174.479c-47.917,-74.219 -71.875,-158.333 -71.875,-252.083c0,-107.943 27.865,-194.011 83.854,-258.333c56.25,-64.193 145.443,-110.547 267.709,-139.063c122.135,-28.385 287.239,-42.708 495.312,-42.708l82.292,-0l-0,-36.979c-0,-75.261 -17.448,-127.735 -52.084,-157.292c-34.375,-29.427 -95.572,-44.271 -183.333,-44.271c-69.14,0 -149.219,13.802 -240.104,41.146c-90.625,27.474 -175.781,62.76 -255.208,105.729l-137.5,-357.812c87.76,-53.125 197.395,-97.396 328.645,-132.813c131.511,-35.677 252.344,-53.646 362.5,-53.646Zm-73.437,1201.56c73.177,-0 133.333,-26.042 180.208,-78.125c46.875,-52.084 70.313,-118.881 70.313,-200.521l-0,-36.458l-48.959,-0c-130.208,-0 -222.916,11.848 -278.125,35.416c-54.947,23.307 -82.291,62.37 -82.291,117.188c-0,46.875 14.713,85.807 44.271,116.666c29.427,30.599 67.708,45.834 114.583,45.834Z" style="fill:#3552c8;fill-rule:nonzero;"/></g></g></g><g><g><g><path d="M7571.61,5708.38c179.167,0 312.5,53.516 400,160.417c87.761,107.031 131.771,269.531 131.771,487.5l-0,892.708l-544.271,0l0,-868.229c0,-89.583 -15.885,-154.687 -47.396,-195.312c-31.64,-40.886 -79.036,-61.459 -142.187,-61.459c-81.25,0 -145.834,26.042 -193.75,78.125c-47.917,52.084 -71.875,121.875 -71.875,209.375l-0,837.5l-544.271,0l-0,-1504.17l529.167,-0l-0,202.083c52.734,-77.344 120.833,-136.458 204.166,-177.083c83.594,-40.886 176.563,-61.459 278.646,-61.459Z" style="fill:#3552c8;fill-rule:nonzero;"/></g></g></g><g><g><g><path d="M9860.87,5744.84l-0,1320.83c-0,248.568 -73.958,436.979 -221.875,565.104c-147.656,128.385 -366.016,192.708 -655.208,192.708c-136.459,0 -269.011,-15.885 -397.396,-47.395c-128.516,-31.641 -239.584,-75.912 -333.334,-132.813l137.5,-369.792c93.75,48.959 190.886,86.589 291.667,113.021c101.042,26.302 196.485,39.584 286.458,39.584c120.053,-0 209.115,-26.042 267.188,-78.125c57.943,-51.823 86.979,-133.594 86.979,-245.834l0,-116.146c-44.792,67.448 -109.114,121.094 -192.708,160.938c-83.334,39.583 -173.959,59.375 -271.875,59.375c-130.209,-0 -246.354,-30.469 -348.438,-91.667c-101.823,-61.068 -181.25,-148.177 -238.541,-261.458c-57.032,-113.151 -85.417,-244.011 -85.417,-392.708c-0,-148.959 28.385,-280.339 85.417,-394.271c57.291,-114.193 136.718,-202.344 238.541,-264.584c102.084,-62.109 218.229,-93.229 348.438,-93.229c100,0 191.666,20.573 275,61.459c83.594,40.625 147.916,96.614 192.708,167.708l0,-192.708l534.896,-0Zm-837.5,1054.69c95.833,0 170.052,-29.948 222.917,-90.104c53.125,-60.026 79.687,-142.969 79.687,-248.958c0,-107.943 -26.562,-192.448 -79.687,-253.646c-52.865,-61.068 -127.084,-91.667 -222.917,-91.667c-93.75,0 -167.188,30.078 -220.313,90.104c-52.864,60.156 -79.166,145.182 -79.166,255.209c-0,105.989 26.823,188.932 80.729,248.958c54.167,60.156 127.083,90.104 218.75,90.104Z" style="fill:#3552c8;fill-rule:nonzero;"/></g></g></g><g><g><g><path d="M11414.1,6601.09l-929.167,-0c15.885,97.656 51.302,167.968 106.25,210.937c55.208,42.708 133.854,64.063 235.937,64.063c73.178,-0 147.526,-12.11 222.917,-36.459c75.261,-24.609 142.708,-58.333 202.083,-101.041l137.5,357.812c-75.39,54.948 -166.145,98.177 -272.395,129.688c-105.99,31.51 -211.849,47.395 -317.709,47.395c-173.307,0 -323.177,-31.51 -449.479,-94.791c-126.432,-63.151 -223.828,-153.776 -292.187,-271.875c-68.099,-118.36 -102.084,-257.032 -102.084,-416.146c0,-150.651 32.032,-285.547 96.354,-404.688c64.193,-119.01 153.776,-211.718 268.75,-278.125c115.235,-66.276 245.313,-99.479 390.105,-99.479c215.885,0 387.109,68.75 513.541,206.25c126.302,137.5 189.584,325.521 189.584,564.063l-0,122.396Zm-688.021,-526.042c-144.792,-0 -227.344,89.844 -247.396,269.271l479.687,-0c-12.239,-179.427 -89.583,-269.271 -232.291,-269.271Z" style="fill:#3552c8;fill-rule:nonzero;"/></g></g></g><g><g><g><path d="M1445.83,9693.16l0,-2155.21l562.5,-0l0,1700l916.667,-0l0,455.208l-1479.17,-0Z" style="fill:#3552c8;fill-rule:nonzero;"/></g></g></g><g><g><g><path d="M3692.55,8152.53c236.459,-0 411.068,54.557 523.959,163.542c113.151,109.114 169.791,278.645 169.791,508.854l0,868.229l-510.416,-0l-0,-210.938c-28.516,73.308 -76.433,130.99 -143.75,172.917c-67.448,41.667 -147.917,62.5 -241.667,62.5c-103.906,0 -197.656,-20.833 -281.25,-62.5c-83.333,-41.927 -148.958,-100.13 -196.875,-174.479c-47.917,-74.219 -71.875,-158.333 -71.875,-252.083c0,-107.943 27.865,-194.011 83.854,-258.334c56.25,-64.192 145.443,-110.547 267.709,-139.062c122.135,-28.386 287.239,-42.709 495.312,-42.709l82.292,0l-0,-36.979c-0,-75.26 -17.448,-127.734 -52.084,-157.291c-34.375,-29.427 -95.573,-44.271 -183.333,-44.271c-69.141,-0 -149.219,13.802 -240.104,41.146c-90.625,27.474 -175.781,62.76 -255.208,105.729l-137.5,-357.813c87.76,-53.125 197.395,-97.396 328.645,-132.812c131.511,-35.677 252.344,-53.646 362.5,-53.646Zm-73.437,1201.56c73.177,0 133.333,-26.041 180.208,-78.125c46.875,-52.083 70.313,-118.88 70.313,-200.52l-0,-36.459l-48.959,0c-130.208,0 -222.916,11.849 -278.125,35.417c-54.948,23.307 -82.291,62.37 -82.291,117.187c-0,46.875 14.713,85.808 44.271,116.667c29.427,30.599 67.708,45.833 114.583,45.833Z" style="fill:#3552c8;fill-rule:nonzero;"/></g></g></g><g><g><g><path d="M5535.41,8152.53c130.469,-0 245.573,31.641 345.313,94.792c99.999,63.281 177.864,153.515 233.854,270.833c56.25,117.057 84.375,252.995 84.375,407.812c-0,154.948 -28.125,292.448 -84.375,412.5c-55.99,120.183 -134.375,213.412 -235.417,279.688c-100.781,66.406 -215.365,99.479 -343.75,99.479c-99.74,0 -190.885,-20.312 -273.438,-60.937c-82.291,-40.886 -145.052,-97.006 -188.02,-168.23l-0,204.688l-534.896,-0l-0,-2155.21l544.271,-0l-0,828.645c44.791,-65.234 107.422,-117.187 188.021,-155.729c80.468,-38.802 168.489,-58.333 264.062,-58.333Zm-167.708,1158.33c93.75,0 165.885,-32.942 216.666,-98.958c51.042,-66.276 76.563,-161.589 76.563,-285.938c-0,-118.359 -25,-208.984 -75,-271.875c-49.74,-63.151 -121.354,-94.791 -215.104,-94.791c-95.834,-0 -169.271,32.161 -220.313,96.354c-51.041,63.932 -76.562,156.12 -76.562,276.562c-0,122.266 25.521,216.016 76.562,281.25c51.042,64.974 123.438,97.396 217.188,97.396Z" style="fill:#3552c8;fill-rule:nonzero;"/></g></g></g></svg>